<svg id="my-svg" width="100%" xmlns="http://www.w3.org/2000/svg" xmlns:xlink="http://www.w3.org/1999/xlink" class="flowchart" style="max-width: 1797.44px; background-color: white;" viewBox="0 0 1797.4375 553" role="graphics-document document" aria-roledescription="flowchart-v2"><style>#my-svg{font-family:"trebuchet ms",verdana,arial,sans-serif;font-size:16px;fill:#333;}@keyframes edge-animation-frame{from{stroke-dashoffset:0;}}@keyframes dash{to{stroke-dashoffset:0;}}#my-svg .edge-animation-slow{stroke-dasharray:9,5!important;stroke-dashoffset:900;animation:dash 50s linear infinite;stroke-linecap:round;}#my-svg .edge-animation-fast{stroke-dasharray:9,5!important;stroke-dashoffset:900;animation:dash 20s linear infinite;stroke-linecap:round;}#my-svg .error-icon{fill:#552222;}#my-svg .error-text{fill:#552222;stroke:#552222;}#my-svg .edge-thickness-normal{stroke-width:1px;}#my-svg .edge-thickness-thick{stroke-width:3.5px;}#my-svg .edge-pattern-solid{stroke-dasharray:0;}#my-svg .edge-thickness-invisible{stroke-width:0;fill:none;}#my-svg .edge-pattern-dashed{stroke-dasharray:3;}#my-svg .edge-pattern-dotted{stroke-dasharray:2;}#my-svg .marker{fill:#333333;stroke:#333333;}#my-svg .marker.cross{stroke:#333333;}#my-svg svg{font-family:"trebuchet ms",verdana,arial,sans-serif;font-size:16px;}#my-svg p{margin:0;}#my-svg .label{font-family:"trebuchet ms",verdana,arial,sans-serif;color:#333;}#my-svg .cluster-label text{fill:#333;}#my-svg .cluster-label span{color:#333;}#my-svg .cluster-label span p{background-color:transparent;}#my-svg .label text,#my-svg span{fill:#333;color:#333;}#my-svg .node rect,#my-svg .node circle,#my-svg .node ellipse,#my-svg .node polygon,#my-svg .node path{fill:#ECECFF;stroke:#9370DB;stroke-width:1px;}#my-svg .rough-node .label text,#my-svg .node .label text,#my-svg .image-shape .label,#my-svg .icon-shape .label{text-anchor:middle;}#my-svg .node .katex path{fill:#000;stroke:#000;stroke-width:1px;}#my-svg .rough-node .label,#my-svg .node .label,#my-svg .image-shape .label,#my-svg .icon-shape .label{text-align:center;}#my-svg .node.clickable{cursor:pointer;}#my-svg .root .anchor path{fill:#333333!important;stroke-width:0;stroke:#333333;}#my-svg .arrowheadPath{fill:#333333;}#my-svg .edgePath .path{stroke:#333333;stroke-width:1px;}#my-svg .flowchart-link{stroke:#333333;fill:none;}#my-svg .edgeLabel{background-color:rgba(232,232,232, 0.8);text-align:center;}#my-svg .edgeLabel p{background-color:rgba(232,232,232, 0.8);}#my-svg .edgeLabel rect{opacity:0.5;background-color:rgba(232,232,232, 0.8);fill:rgba(232,232,232, 0.8);}#my-svg .labelBkg{background-color:rgba(232, 232, 232, 0.5);}#my-svg .cluster rect{fill:#ffffde;stroke:#aaaa33;stroke-width:1px;}#my-svg .cluster text{fill:#333;}#my-svg .cluster span{color:#333;}#my-svg div.mermaidTooltip{position:absolute;text-align:center;max-width:200px;padding:2px;font-family:"trebuchet ms",verdana,arial,sans-serif;font-size:12px;background:hsl(80, 100%, 96.2745098039%);border:1px solid #aaaa33;border-radius:2px;pointer-events:none;z-index:100;}#my-svg .flowchartTitleText{text-anchor:middle;font-size:18px;fill:#333;}#my-svg rect.text{fill:none;stroke-width:0;}#my-svg .icon-shape,#my-svg .image-shape{background-color:rgba(232,232,232, 0.8);text-align:center;}#my-svg .icon-shape p,#my-svg .image-shape p{background-color:rgba(232,232,232, 0.8);padding:2px;}#my-svg .icon-shape .label rect,#my-svg .image-shape .label rect{opacity:0.5;background-color:rgba(232,232,232, 0.8);fill:rgba(232,232,232, 0.8);}#my-svg .label-icon{display:inline-block;height:1em;overflow:visible;vertical-align:-0.125em;}#my-svg .node .label-icon path{fill:currentColor;stroke:revert;stroke-width:revert;}#my-svg .node .neo-node{stroke:#9370DB;}#my-svg [data-look="neo"].node rect,#my-svg [data-look="neo"].cluster rect,#my-svg [data-look="neo"].node polygon{stroke:#9370DB;filter:drop-shadow(1px 2px 2px rgba(185, 185, 185, 1));}#my-svg [data-look="neo"].node path{stroke:#9370DB;stroke-width:1px;}#my-svg [data-look="neo"].node .outer-path{filter:drop-shadow(1px 2px 2px rgba(185, 185, 185, 1));}#my-svg [data-look="neo"].node .neo-line path{stroke:#9370DB;filter:none;}#my-svg [data-look="neo"].node circle{stroke:#9370DB;filter:drop-shadow(1px 2px 2px rgba(185, 185, 185, 1));}#my-svg [data-look="neo"].node circle .state-start{fill:#000000;}#my-svg [data-look="neo"].icon-shape .icon{fill:#9370DB;filter:drop-shadow(1px 2px 2px rgba(185, 185, 185, 1));}#my-svg [data-look="neo"].icon-shape .icon-neo path{stroke:#9370DB;filter:drop-shadow(1px 2px 2px rgba(185, 185, 185, 1));}#my-svg :root{--mermaid-font-family:"trebuchet ms",verdana,arial,sans-serif;}</style><g><marker id="my-svg_flowchart-v2-pointEnd" class="marker flowchart-v2" viewBox="0 0 10 10" refX="5" refY="5" markerUnits="userSpaceOnUse" markerWidth="8" markerHeight="8" orient="auto"><path d="M 0 0 L 10 5 L 0 10 z" class="arrowMarkerPath" style="stroke-width: 1; stroke-dasharray: 1, 0;"/></marker><marker id="my-svg_flowchart-v2-pointStart" class="marker flowchart-v2" viewBox="0 0 10 10" refX="4.5" refY="5" markerUnits="userSpaceOnUse" markerWidth="8" markerHeight="8" orient="auto"><path d="M 0 5 L 10 10 L 10 0 z" class="arrowMarkerPath" style="stroke-width: 1; stroke-dasharray: 1, 0;"/></marker><marker id="my-svg_flowchart-v2-pointEnd-margin" class="marker flowchart-v2" viewBox="0 0 11.5 14" refX="11.5" refY="7" markerUnits="userSpaceOnUse" markerWidth="10.5" markerHeight="14" orient="auto"><path d="M 0 0 L 11.5 7 L 0 14 z" class="arrowMarkerPath" style="stroke-width: 0; stroke-dasharray: 1, 0;"/></marker><marker id="my-svg_flowchart-v2-pointStart-margin" class="marker flowchart-v2" viewBox="0 0 11.5 14" refX="1" refY="7" markerUnits="userSpaceOnUse" markerWidth="11.5" markerHeight="14" orient="auto"><polygon points="0,7 11.5,14 11.5,0" class="arrowMarkerPath" style="stroke-width: 0; stroke-dasharray: 1, 0;"/></marker><marker id="my-svg_flowchart-v2-circleEnd" class="marker flowchart-v2" viewBox="0 0 10 10" refX="11" refY="5" markerUnits="userSpaceOnUse" markerWidth="11" markerHeight="11" orient="auto"><circle cx="5" cy="5" r="5" class="arrowMarkerPath" style="stroke-width: 1; stroke-dasharray: 1, 0;"/></marker><marker id="my-svg_flowchart-v2-circleStart" class="marker flowchart-v2" viewBox="0 0 10 10" refX="-1" refY="5" markerUnits="userSpaceOnUse" markerWidth="11" markerHeight="11" orient="auto"><circle cx="5" cy="5" r="5" class="arrowMarkerPath" style="stroke-width: 1; stroke-dasharray: 1, 0;"/></marker><marker id="my-svg_flowchart-v2-circleEnd-margin" class="marker flowchart-v2" viewBox="0 0 10 10" refY="5" refX="12.25" markerUnits="userSpaceOnUse" markerWidth="14" markerHeight="14" orient="auto"><circle cx="5" cy="5" r="5" class="arrowMarkerPath" style="stroke-width: 0; stroke-dasharray: 1, 0;"/></marker><marker id="my-svg_flowchart-v2-circleStart-margin" class="marker flowchart-v2" viewBox="0 0 10 10" refX="-2" refY="5" markerUnits="userSpaceOnUse" markerWidth="14" markerHeight="14" orient="auto"><circle cx="5" cy="5" r="5" class="arrowMarkerPath" style="stroke-width: 0; stroke-dasharray: 1, 0;"/></marker><marker id="my-svg_flowchart-v2-crossEnd" class="marker cross flowchart-v2" viewBox="0 0 11 11" refX="12" refY="5.2" markerUnits="userSpaceOnUse" markerWidth="11" markerHeight="11" orient="auto"><path d="M 1,1 l 9,9 M 10,1 l -9,9" class="arrowMarkerPath" style="stroke-width: 2; stroke-dasharray: 1, 0;"/></marker><marker id="my-svg_flowchart-v2-crossStart" class="marker cross flowchart-v2" viewBox="0 0 11 11" refX="-1" refY="5.2" markerUnits="userSpaceOnUse" markerWidth="11" markerHeight="11" orient="auto"><path d="M 1,1 l 9,9 M 10,1 l -9,9" class="arrowMarkerPath" style="stroke-width: 2; stroke-dasharray: 1, 0;"/></marker><marker id="my-svg_flowchart-v2-crossEnd-margin" class="marker cross flowchart-v2" viewBox="0 0 15 15" refX="17.7" refY="7.5" markerUnits="userSpaceOnUse" markerWidth="12" markerHeight="12" orient="auto"><path d="M 1,1 L 14,14 M 1,14 L 14,1" class="arrowMarkerPath" style="stroke-width: 2.5;"/></marker><marker id="my-svg_flowchart-v2-crossStart-margin" class="marker cross flowchart-v2" viewBox="0 0 15 15" refX="-3.5" refY="7.5" markerUnits="userSpaceOnUse" markerWidth="12" markerHeight="12" orient="auto"><path d="M 1,1 L 14,14 M 1,14 L 14,1" class="arrowMarkerPath" style="stroke-width: 2.5; stroke-dasharray: 1, 0;"/></marker><g class="root"><g class="clusters"><g class="cluster" id="my-svg-Management" data-look="classic"><rect style="" x="8" y="25" width="266.296875" height="520"/><g class="cluster-label" transform="translate(95.765625, 25)"><foreignObject width="90.765625" height="24"><div xmlns="http://www.w3.org/1999/xhtml" style="display: table-cell; white-space: nowrap; line-height: 1.5;"><span class="nodeLabel"><p>Management</p></span></div></foreignObject></g></g><g class="cluster" id="my-svg-Closing" data-look="classic"><rect style="" x="1533.1875" y="287" width="256.25" height="258"/><g class="cluster-label" transform="translate(1635.96875, 287)"><foreignObject width="50.6875" height="24"><div xmlns="http://www.w3.org/1999/xhtml" style="display: table-cell; white-space: nowrap; line-height: 1.5;"><span class="nodeLabel"><p>Closing</p></span></div></foreignObject></g></g><g class="cluster" id="my-svg-Integration" data-look="classic"><rect style="" x="1209.65625" y="25" width="273.53125" height="453"/><g class="cluster-label" transform="translate(1306.84375, 25)"><foreignObject width="79.15625" height="24"><div xmlns="http://www.w3.org/1999/xhtml" style="display: table-cell; white-space: nowrap; line-height: 1.5;"><span class="nodeLabel"><p>Integration</p></span></div></foreignObject></g></g><g class="cluster" id="my-svg-Implementation" data-look="classic"><rect style="" x="932.671875" y="8" width="226.984375" height="430"/><g class="cluster-label" transform="translate(989.25, 8)"><foreignObject width="113.828125" height="24"><div xmlns="http://www.w3.org/1999/xhtml" style="display: table-cell; white-space: nowrap; line-height: 1.5;"><span class="nodeLabel"><p>Implementation</p></span></div></foreignObject></g></g><g class="cluster" id="my-svg-Planning" data-look="classic"><rect style="" x="646.15625" y="119" width="236.515625" height="225"/><g class="cluster-label" transform="translate(733.9765625, 119)"><foreignObject width="60.875" height="24"><div xmlns="http://www.w3.org/1999/xhtml" style="display: table-cell; white-space: nowrap; line-height: 1.5;"><span class="nodeLabel"><p>Planning</p></span></div></foreignObject></g></g><g class="cluster" id="my-svg-Scoping" data-look="classic"><rect style="" x="324.296875" y="102" width="271.859375" height="148"/><g class="cluster-label" transform="translate(433, 102)"><foreignObject width="54.453125" height="24"><div xmlns="http://www.w3.org/1999/xhtml" style="display: table-cell; white-space: nowrap; line-height: 1.5;"><span class="nodeLabel"><p>Scoping</p></span></div></foreignObject></g></g></g><g class="edgePaths"><path d="M571.156,176L575.323,176C579.49,176,587.823,176,596.156,176C604.49,176,612.823,176,621.156,176C629.49,176,637.823,176,645.537,177.41C653.251,178.82,660.345,181.639,663.892,183.049L667.439,184.459" id="my-svg-L_A_B_0" class="edge-thickness-normal edge-pattern-solid edge-thickness-normal edge-pattern-solid flowchart-link" style=";" data-edge="true" data-et="edge" data-id="L_A_B_0" data-points="W3sieCI6NTcxLjE1NjI1LCJ5IjoxNzZ9LHsieCI6NTk2LjE1NjI1LCJ5IjoxNzZ9LHsieCI6NjIxLjE1NjI1LCJ5IjoxNzZ9LHsieCI6NjQ2LjE1NjI1LCJ5IjoxNzZ9LHsieCI6NjcxLjE1NjI1LCJ5IjoxODUuOTM1OTE4NjEwMDI4NH1d" data-look="classic" marker-end="url(#my-svg_flowchart-v2-pointEnd)"/><path d="M857.672,185.936L861.839,184.28C866.005,182.624,874.339,179.312,882.672,159.156C891.005,139,899.339,102,907.672,83.5C916.005,65,924.339,65,932.188,65.552C940.038,66.103,947.404,67.207,951.088,67.758L954.771,68.31" id="my-svg-L_B_C_0" class="edge-thickness-normal edge-pattern-solid edge-thickness-normal edge-pattern-solid flowchart-link" style=";" data-edge="true" data-et="edge" data-id="L_B_C_0" data-points="W3sieCI6ODU3LjY3MTg3NSwieSI6MTg1LjkzNTkxODYxMDAyODR9LHsieCI6ODgyLjY3MTg3NSwieSI6MTc2fSx7IngiOjkwNy42NzE4NzUsInkiOjY1fSx7IngiOjkzMi42NzE4NzUsInkiOjY1fSx7IngiOjk1OC43MjY1NjI1LCJ5Ijo2OC45MDI3MzI4NDIyOTM2Nn1d" data-look="classic" marker-end="url(#my-svg_flowchart-v2-pointEnd)"/><path d="M857.672,207.228L861.839,206.523C866.005,205.819,874.339,204.409,882.672,203.705C891.005,203,899.339,203,907.672,203C916.005,203,924.339,203,932.008,203.309C939.677,203.617,946.682,204.234,950.185,204.543L953.687,204.852" id="my-svg-L_B_D_0" class="edge-thickness-normal edge-pattern-solid edge-thickness-normal edge-pattern-solid flowchart-link" style=";" data-edge="true" data-et="edge" data-id="L_B_D_0" data-points="W3sieCI6ODU3LjY3MTg3NSwieSI6MjA3LjIyODA1MDQ3MjM1MjUyfSx7IngiOjg4Mi42NzE4NzUsInkiOjIwM30seyJ4Ijo5MDcuNjcxODc1LCJ5IjoyMDN9LHsieCI6OTMyLjY3MTg3NSwieSI6MjAzfSx7IngiOjk1Ny42NzE4NzUsInkiOjIwNS4yMDI3OTQ3OTU4OTczfV0=" data-look="classic" marker-end="url(#my-svg_flowchart-v2-pointEnd)"/><path d="M826.739,262L836.061,267.833C845.383,273.667,864.028,285.333,877.516,292.333C891.005,299.333,899.339,301.667,907.672,302.833C916.005,304,924.339,304,933.883,306.701C943.427,309.402,954.182,314.803,959.559,317.504L964.937,320.205" id="my-svg-L_B_E_0" class="edge-thickness-normal edge-pattern-solid edge-thickness-normal edge-pattern-solid flowchart-link" style=";" data-edge="true" data-et="edge" data-id="L_B_E_0" data-points="W3sieCI6ODI2LjczOTEyNTg0NDU5NDYsInkiOjI2Mn0seyJ4Ijo4ODIuNjcxODc1LCJ5IjoyOTd9LHsieCI6OTA3LjY3MTg3NSwieSI6MzA0fSx7IngiOjkzMi42NzE4NzUsInkiOjMwNH0seyJ4Ijo5NjguNTExNTEzMTU3ODk0OCwieSI6MzIyfV0=" data-look="classic" marker-end="url(#my-svg_flowchart-v2-pointEnd)"/><path d="M1133.602,82L1137.944,82C1142.286,82,1150.971,82,1159.48,82C1167.99,82,1176.323,82,1184.656,82C1192.99,82,1201.323,82,1224.582,118.576C1247.842,155.151,1286.027,228.303,1305.12,264.878L1324.213,301.454" id="my-svg-L_C_F_0" class="edge-thickness-normal edge-pattern-solid edge-thickness-normal edge-pattern-solid flowchart-link" style=";" data-edge="true" data-et="edge" data-id="L_C_F_0" data-points="W3sieCI6MTEzMy42MDE1NjI1LCJ5Ijo4Mn0seyJ4IjoxMTU5LjY1NjI1LCJ5Ijo4Mn0seyJ4IjoxMTg0LjY1NjI1LCJ5Ijo4Mn0seyJ4IjoxMjA5LjY1NjI1LCJ5Ijo4Mn0seyJ4IjoxMzI2LjA2MzYzMzExMDY4NywieSI6MzA1fV0=" data-look="classic" marker-end="url(#my-svg_flowchart-v2-pointEnd)"/><path d="M1134.656,213L1138.823,213C1142.99,213,1151.323,213,1159.656,213C1167.99,213,1176.323,213,1184.656,213C1192.99,213,1201.323,213,1221.016,227.872C1240.71,242.744,1271.763,272.489,1287.29,287.361L1302.817,302.233" id="my-svg-L_D_F_0" class="edge-thickness-normal edge-pattern-solid edge-thickness-normal edge-pattern-solid flowchart-link" style=";" data-edge="true" data-et="edge" data-id="L_D_F_0" data-points="W3sieCI6MTEzNC42NTYyNSwieSI6MjEzfSx7IngiOjExNTkuNjU2MjUsInkiOjIxM30seyJ4IjoxMTg0LjY1NjI1LCJ5IjoyMTN9LHsieCI6MTIwOS42NTYyNSwieSI6MjEzfSx7IngiOjEzMDUuNzA1MzkxMjIxMzc0MiwieSI6MzA1fV0=" data-look="classic" marker-end="url(#my-svg_flowchart-v2-pointEnd)"/><path d="M1124.453,361L1130.32,361C1136.188,361,1147.922,361,1157.956,361C1167.99,361,1176.323,361,1184.656,361C1192.99,361,1201.323,361,1208.995,360.564C1216.666,360.129,1223.677,359.257,1227.182,358.822L1230.687,358.386" id="my-svg-L_E_F_0" class="edge-thickness-normal edge-pattern-solid edge-thickness-normal edge-pattern-solid flowchart-link" style=";" data-edge="true" data-et="edge" data-id="L_E_F_0" data-points="W3sieCI6MTEyNC40NTMxMjUsInkiOjM2MX0seyJ4IjoxMTU5LjY1NjI1LCJ5IjozNjF9LHsieCI6MTE4NC42NTYyNSwieSI6MzYxfSx7IngiOjEyMDkuNjU2MjUsInkiOjM2MX0seyJ4IjoxMjM0LjY1NjI1LCJ5IjozNTcuODkyNDk0MDAyMDU2NH1d" data-look="classic" marker-end="url(#my-svg_flowchart-v2-pointEnd)"/><path d="M1458.188,344L1462.354,344C1466.521,344,1474.854,344,1483.188,344C1491.521,344,1499.854,344,1508.188,344C1516.521,344,1524.854,344,1537.354,348.358C1549.854,352.715,1566.521,361.431,1574.854,365.789L1583.188,370.146" id="my-svg-L_F_G_0" class="edge-thickness-normal edge-pattern-solid edge-thickness-normal edge-pattern-solid flowchart-link" style=";" data-edge="true" data-et="edge" data-id="L_F_G_0" data-points="W3sieCI6MTQ1OC4xODc1LCJ5IjozNDR9LHsieCI6MTQ4My4xODc1LCJ5IjozNDR9LHsieCI6MTUwOC4xODc1LCJ5IjozNDR9LHsieCI6MTUzMy4xODc1LCJ5IjozNDR9LHsieCI6MTU4Ni43MzIyNzYxMTk0MDMsInkiOjM3Mn1d" data-look="classic" marker-end="url(#my-svg_flowchart-v2-pointEnd)"/><path d="M186.699,251L201.299,238.5C215.898,226,245.098,201,263.864,188.5C282.63,176,290.964,176,299.297,176C307.63,176,315.964,176,324.297,176C332.63,176,340.964,176,345.13,176L349.297,176" id="my-svg-L_M_A_0" class="edge-thickness-normal edge-pattern-dotted edge-thickness-normal edge-pattern-solid flowchart-link" style=";" data-edge="true" data-et="edge" data-id="L_M_A_0" data-points="W3sieCI6MTg2LjY5OTIxODc1LCJ5IjoyNTF9LHsieCI6Mjc0LjI5Njg3NSwieSI6MTc2fSx7IngiOjI5OS4yOTY4NzUsInkiOjE3Nn0seyJ4IjozMjQuMjk2ODc1LCJ5IjoxNzZ9LHsieCI6MzQ5LjI5Njg3NSwieSI6MTc2fV0=" data-look="classic"/><path d="M249.297,295.686L253.464,295.905C257.63,296.124,265.964,296.562,274.297,296.781C282.63,297,290.964,297,299.297,297C307.63,297,315.964,297,342.785,297C369.607,297,414.917,297,460.227,297C505.536,297,550.846,297,577.668,297C604.49,297,612.823,297,621.156,297C629.49,297,637.823,297,651.312,291.167C664.8,285.333,683.445,273.667,692.767,267.833L702.089,262" id="my-svg-L_M_B_0" class="edge-thickness-normal edge-pattern-dotted edge-thickness-normal edge-pattern-solid flowchart-link" style=";" data-edge="true" data-et="edge" data-id="L_M_B_0" data-points="W3sieCI6MjQ5LjI5Njg3NSwieSI6Mjk1LjY4NTY3NzQwNDIxMjg3fSx7IngiOjI3NC4yOTY4NzUsInkiOjI5N30seyJ4IjoyOTkuMjk2ODc1LCJ5IjoyOTd9LHsieCI6MzI0LjI5Njg3NSwieSI6Mjk3fSx7IngiOjQ2MC4yMjY1NjI1LCJ5IjoyOTd9LHsieCI6NTk2LjE1NjI1LCJ5IjoyOTd9LHsieCI6NjIxLjE1NjI1LCJ5IjoyOTd9LHsieCI6NjQ2LjE1NjI1LCJ5IjoyOTd9LHsieCI6NzAyLjA4ODk5OTE1NTQwNTQsInkiOjI2Mn1d" data-look="classic"/><path d="M166.114,251L184.144,222.833C202.175,194.667,238.236,138.333,260.433,110.167C282.63,82,290.964,82,299.297,82C307.63,82,315.964,82,342.785,82C369.607,82,414.917,82,460.227,82C505.536,82,550.846,82,577.668,82C604.49,82,612.823,82,621.156,82C629.49,82,637.823,82,661.699,82C685.576,82,724.995,82,764.414,82C803.833,82,843.253,82,867.129,84.833C891.005,87.667,899.339,93.333,907.672,96.167C916.005,99,924.339,99,932.848,98.35C941.357,97.699,950.042,96.398,954.384,95.748L958.727,95.097" id="my-svg-L_M_C_0" class="edge-thickness-normal edge-pattern-dotted edge-thickness-normal edge-pattern-solid flowchart-link" style=";" data-edge="true" data-et="edge" data-id="L_M_C_0" data-points="W3sieCI6MTY2LjExMzc2OTUzMTI1LCJ5IjoyNTF9LHsieCI6Mjc0LjI5Njg3NSwieSI6ODJ9LHsieCI6Mjk5LjI5Njg3NSwieSI6ODJ9LHsieCI6MzI0LjI5Njg3NSwieSI6ODJ9LHsieCI6NDYwLjIyNjU2MjUsInkiOjgyfSx7IngiOjU5Ni4xNTYyNSwieSI6ODJ9LHsieCI6NjIxLjE1NjI1LCJ5Ijo4Mn0seyJ4Ijo2NDYuMTU2MjUsInkiOjgyfSx7IngiOjc2NC40MTQwNjI1LCJ5Ijo4Mn0seyJ4Ijo4ODIuNjcxODc1LCJ5Ijo4Mn0seyJ4Ijo5MDcuNjcxODc1LCJ5Ijo5OX0seyJ4Ijo5MzIuNjcxODc1LCJ5Ijo5OX0seyJ4Ijo5NTguNzI2NTYyNSwieSI6OTUuMDk3MjY3MTU3NzA2MzR9XQ==" data-look="classic"/><path d="M205.257,329L216.764,336C228.27,343,251.284,357,266.957,364C282.63,371,290.964,371,299.297,371C307.63,371,315.964,371,342.785,371C369.607,371,414.917,371,460.227,371C505.536,371,550.846,371,577.668,371C604.49,371,612.823,371,621.156,371C629.49,371,637.823,371,661.699,371C685.576,371,724.995,371,764.414,371C803.833,371,843.253,371,867.129,353.667C891.005,336.333,899.339,301.667,907.672,284.333C916.005,267,924.339,267,933.759,264.5C943.18,262,953.689,257,958.943,254.5L964.197,252" id="my-svg-L_M_D_0" class="edge-thickness-normal edge-pattern-dotted edge-thickness-normal edge-pattern-solid flowchart-link" style=";" data-edge="true" data-et="edge" data-id="L_M_D_0" data-points="W3sieCI6MjA1LjI1Njk0NDQ0NDQ0NDQ2LCJ5IjozMjl9LHsieCI6Mjc0LjI5Njg3NSwieSI6MzcxfSx7IngiOjI5OS4yOTY4NzUsInkiOjM3MX0seyJ4IjozMjQuMjk2ODc1LCJ5IjozNzF9LHsieCI6NDYwLjIyNjU2MjUsInkiOjM3MX0seyJ4Ijo1OTYuMTU2MjUsInkiOjM3MX0seyJ4Ijo2MjEuMTU2MjUsInkiOjM3MX0seyJ4Ijo2NDYuMTU2MjUsInkiOjM3MX0seyJ4Ijo3NjQuNDE0MDYyNSwieSI6MzcxfSx7IngiOjg4Mi42NzE4NzUsInkiOjM3MX0seyJ4Ijo5MDcuNjcxODc1LCJ5IjoyNjd9LHsieCI6OTMyLjY3MTg3NSwieSI6MjY3fSx7IngiOjk2NC4xOTc0ODI2Mzg4ODg5LCJ5IjoyNTJ9XQ==" data-look="classic"/><path d="M192.562,329L206.185,339.333C219.807,349.667,247.052,370.333,264.841,380.667C282.63,391,290.964,391,299.297,391C307.63,391,315.964,391,342.785,391C369.607,391,414.917,391,460.227,391C505.536,391,550.846,391,577.668,391C604.49,391,612.823,391,621.156,391C629.49,391,637.823,391,661.699,391C685.576,391,724.995,391,764.414,391C803.833,391,843.253,391,867.129,391C891.005,391,899.339,391,907.672,391C916.005,391,924.339,391,934.372,389.449C944.406,387.898,956.141,384.796,962.008,383.245L967.875,381.695" id="my-svg-L_M_E_0" class="edge-thickness-normal edge-pattern-dotted edge-thickness-normal edge-pattern-solid flowchart-link" style=";" data-edge="true" data-et="edge" data-id="L_M_E_0" data-points="W3sieCI6MTkyLjU2MjE5MDU5NDA1OTQyLCJ5IjozMjl9LHsieCI6Mjc0LjI5Njg3NSwieSI6MzkxfSx7IngiOjI5OS4yOTY4NzUsInkiOjM5MX0seyJ4IjozMjQuMjk2ODc1LCJ5IjozOTF9LHsieCI6NDYwLjIyNjU2MjUsInkiOjM5MX0seyJ4Ijo1OTYuMTU2MjUsInkiOjM5MX0seyJ4Ijo2MjEuMTU2MjUsInkiOjM5MX0seyJ4Ijo2NDYuMTU2MjUsInkiOjM5MX0seyJ4Ijo3NjQuNDE0MDYyNSwieSI6MzkxfSx7IngiOjg4Mi42NzE4NzUsInkiOjM5MX0seyJ4Ijo5MDcuNjcxODc1LCJ5IjozOTF9LHsieCI6OTMyLjY3MTg3NSwieSI6MzkxfSx7IngiOjk2Ny44NzUsInkiOjM4MS42OTQ1Njg3MzQwODE0fV0=" data-look="classic"/><path d="M172.058,329L189.098,350.5C206.138,372,240.217,415,261.424,436.5C282.63,458,290.964,458,299.297,458C307.63,458,315.964,458,342.785,458C369.607,458,414.917,458,460.227,458C505.536,458,550.846,458,577.668,458C604.49,458,612.823,458,621.156,458C629.49,458,637.823,458,661.699,458C685.576,458,724.995,458,764.414,458C803.833,458,843.253,458,867.129,458C891.005,458,899.339,458,907.672,458C916.005,458,924.339,458,947.421,458C970.503,458,1008.333,458,1046.164,458C1083.995,458,1121.826,458,1144.908,458C1167.99,458,1176.323,458,1184.656,458C1192.99,458,1201.323,458,1220.486,445.5C1239.649,433,1269.641,408,1284.637,395.5L1299.634,383" id="my-svg-L_M_F_0" class="edge-thickness-normal edge-pattern-dotted edge-thickness-normal edge-pattern-solid flowchart-link" style=";" data-edge="true" data-et="edge" data-id="L_M_F_0" data-points="W3sieCI6MTcyLjA1Nzg5NjIwNTM1NzE0LCJ5IjozMjl9LHsieCI6Mjc0LjI5Njg3NSwieSI6NDU4fSx7IngiOjI5OS4yOTY4NzUsInkiOjQ1OH0seyJ4IjozMjQuMjk2ODc1LCJ5Ijo0NTh9LHsieCI6NDYwLjIyNjU2MjUsInkiOjQ1OH0seyJ4Ijo1OTYuMTU2MjUsInkiOjQ1OH0seyJ4Ijo2MjEuMTU2MjUsInkiOjQ1OH0seyJ4Ijo2NDYuMTU2MjUsInkiOjQ1OH0seyJ4Ijo3NjQuNDE0MDYyNSwieSI6NDU4fSx7IngiOjg4Mi42NzE4NzUsInkiOjQ1OH0seyJ4Ijo5MDcuNjcxODc1LCJ5Ijo0NTh9LHsieCI6OTMyLjY3MTg3NSwieSI6NDU4fSx7IngiOjEwNDYuMTY0MDYyNSwieSI6NDU4fSx7IngiOjExNTkuNjU2MjUsInkiOjQ1OH0seyJ4IjoxMTg0LjY1NjI1LCJ5Ijo0NTh9LHsieCI6MTIwOS42NTYyNSwieSI6NDU4fSx7IngiOjEyOTkuNjMzNjM0ODY4NDIxLCJ5IjozODN9XQ==" data-look="classic"/><path d="M166.114,329L184.144,357.167C202.175,385.333,238.236,441.667,260.433,469.833C282.63,498,290.964,498,299.297,498C307.63,498,315.964,498,342.785,498C369.607,498,414.917,498,460.227,498C505.536,498,550.846,498,577.668,498C604.49,498,612.823,498,621.156,498C629.49,498,637.823,498,661.699,498C685.576,498,724.995,498,764.414,498C803.833,498,843.253,498,867.129,498C891.005,498,899.339,498,907.672,498C916.005,498,924.339,498,947.421,498C970.503,498,1008.333,498,1046.164,498C1083.995,498,1121.826,498,1144.908,498C1167.99,498,1176.323,498,1184.656,498C1192.99,498,1201.323,498,1228.284,498C1255.245,498,1300.833,498,1346.422,498C1392.01,498,1437.599,498,1464.56,498C1491.521,498,1499.854,498,1508.188,498C1516.521,498,1524.854,498,1540.802,490C1556.751,482,1580.314,466,1592.096,458L1603.877,450" id="my-svg-L_M_G_0" class="edge-thickness-normal edge-pattern-dotted edge-thickness-normal edge-pattern-solid flowchart-link" style=";" data-edge="true" data-et="edge" data-id="L_M_G_0" data-points="W3sieCI6MTY2LjExMzc2OTUzMTI1LCJ5IjozMjl9LHsieCI6Mjc0LjI5Njg3NSwieSI6NDk4fSx7IngiOjI5OS4yOTY4NzUsInkiOjQ5OH0seyJ4IjozMjQuMjk2ODc1LCJ5Ijo0OTh9LHsieCI6NDYwLjIyNjU2MjUsInkiOjQ5OH0seyJ4Ijo1OTYuMTU2MjUsInkiOjQ5OH0seyJ4Ijo2MjEuMTU2MjUsInkiOjQ5OH0seyJ4Ijo2NDYuMTU2MjUsInkiOjQ5OH0seyJ4Ijo3NjQuNDE0MDYyNSwieSI6NDk4fSx7IngiOjg4Mi42NzE4NzUsInkiOjQ5OH0seyJ4Ijo5MDcuNjcxODc1LCJ5Ijo0OTh9LHsieCI6OTMyLjY3MTg3NSwieSI6NDk4fSx7IngiOjEwNDYuMTY0MDYyNSwieSI6NDk4fSx7IngiOjExNTkuNjU2MjUsInkiOjQ5OH0seyJ4IjoxMTg0LjY1NjI1LCJ5Ijo0OTh9LHsieCI6MTIwOS42NTYyNSwieSI6NDk4fSx7IngiOjEzNDYuNDIxODc1LCJ5Ijo0OTh9LHsieCI6MTQ4My4xODc1LCJ5Ijo0OTh9LHsieCI6MTUwOC4xODc1LCJ5Ijo0OTh9LHsieCI6MTUzMy4xODc1LCJ5Ijo0OTh9LHsieCI6MTYwMy44NzcxNTUxNzI0MTM3LCJ5Ijo0NTB9XQ==" data-look="classic"/></g><g class="edgeLabels"><g class="edgeLabel"><g class="label" data-id="L_A_B_0" transform="translate(0, 0)"><foreignObject width="0" height="0"><div xmlns="http://www.w3.org/1999/xhtml" class="labelBkg" style="display: table-cell; white-space: nowrap; line-height: 1.5; max-width: 200px; text-align: center;"><span class="edgeLabel"></span></div></foreignObject></g></g><g class="edgeLabel"><g class="label" data-id="L_B_C_0" transform="translate(0, 0)"><foreignObject width="0" height="0"><div xmlns="http://www.w3.org/1999/xhtml" class="labelBkg" style="display: table-cell; white-space: nowrap; line-height: 1.5; max-width: 200px; text-align: center;"><span class="edgeLabel"></span></div></foreignObject></g></g><g class="edgeLabel"><g class="label" data-id="L_B_D_0" transform="translate(0, 0)"><foreignObject width="0" height="0"><div xmlns="http://www.w3.org/1999/xhtml" class="labelBkg" style="display: table-cell; white-space: nowrap; line-height: 1.5; max-width: 200px; text-align: center;"><span class="edgeLabel"></span></div></foreignObject></g></g><g class="edgeLabel"><g class="label" data-id="L_B_E_0" transform="translate(0, 0)"><foreignObject width="0" height="0"><div xmlns="http://www.w3.org/1999/xhtml" class="labelBkg" style="display: table-cell; white-space: nowrap; line-height: 1.5; max-width: 200px; text-align: center;"><span class="edgeLabel"></span></div></foreignObject></g></g><g class="edgeLabel"><g class="label" data-id="L_C_F_0" transform="translate(0, 0)"><foreignObject width="0" height="0"><div xmlns="http://www.w3.org/1999/xhtml" class="labelBkg" style="display: table-cell; white-space: nowrap; line-height: 1.5; max-width: 200px; text-align: center;"><span class="edgeLabel"></span></div></foreignObject></g></g><g class="edgeLabel"><g class="label" data-id="L_D_F_0" transform="translate(0, 0)"><foreignObject width="0" height="0"><div xmlns="http://www.w3.org/1999/xhtml" class="labelBkg" style="display: table-cell; white-space: nowrap; line-height: 1.5; max-width: 200px; text-align: center;"><span class="edgeLabel"></span></div></foreignObject></g></g><g class="edgeLabel"><g class="label" data-id="L_E_F_0" transform="translate(0, 0)"><foreignObject width="0" height="0"><div xmlns="http://www.w3.org/1999/xhtml" class="labelBkg" style="display: table-cell; white-space: nowrap; line-height: 1.5; max-width: 200px; text-align: center;"><span class="edgeLabel"></span></div></foreignObject></g></g><g class="edgeLabel"><g class="label" data-id="L_F_G_0" transform="translate(0, 0)"><foreignObject width="0" height="0"><div xmlns="http://www.w3.org/1999/xhtml" class="labelBkg" style="display: table-cell; white-space: nowrap; line-height: 1.5; max-width: 200px; text-align: center;"><span class="edgeLabel"></span></div></foreignObject></g></g><g class="edgeLabel"><g class="label" data-id="L_M_A_0" transform="translate(0, 0)"><foreignObject width="0" height="0"><div xmlns="http://www.w3.org/1999/xhtml" class="labelBkg" style="display: table-cell; white-space: nowrap; line-height: 1.5; max-width: 200px; text-align: center;"><span class="edgeLabel"></span></div></foreignObject></g></g><g class="edgeLabel"><g class="label" data-id="L_M_B_0" transform="translate(0, 0)"><foreignObject width="0" height="0"><div xmlns="http://www.w3.org/1999/xhtml" class="labelBkg" style="display: table-cell; white-space: nowrap; line-height: 1.5; max-width: 200px; text-align: center;"><span class="edgeLabel"></span></div></foreignObject></g></g><g class="edgeLabel"><g class="label" data-id="L_M_C_0" transform="translate(0, 0)"><foreignObject width="0" height="0"><div xmlns="http://www.w3.org/1999/xhtml" class="labelBkg" style="display: table-cell; white-space: nowrap; line-height: 1.5; max-width: 200px; text-align: center;"><span class="edgeLabel"></span></div></foreignObject></g></g><g class="edgeLabel"><g class="label" data-id="L_M_D_0" transform="translate(0, 0)"><foreignObject width="0" height="0"><div xmlns="http://www.w3.org/1999/xhtml" class="labelBkg" style="display: table-cell; white-space: nowrap; line-height: 1.5; max-width: 200px; text-align: center;"><span class="edgeLabel"></span></div></foreignObject></g></g><g class="edgeLabel"><g class="label" data-id="L_M_E_0" transform="translate(0, 0)"><foreignObject width="0" height="0"><div xmlns="http://www.w3.org/1999/xhtml" class="labelBkg" style="display: table-cell; white-space: nowrap; line-height: 1.5; max-width: 200px; text-align: center;"><span class="edgeLabel"></span></div></foreignObject></g></g><g class="edgeLabel"><g class="label" data-id="L_M_F_0" transform="translate(0, 0)"><foreignObject width="0" height="0"><div xmlns="http://www.w3.org/1999/xhtml" class="labelBkg" style="display: table-cell; white-space: nowrap; line-height: 1.5; max-width: 200px; text-align: center;"><span class="edgeLabel"></span></div></foreignObject></g></g><g class="edgeLabel"><g class="label" data-id="L_M_G_0" transform="translate(0, 0)"><foreignObject width="0" height="0"><div xmlns="http://www.w3.org/1999/xhtml" class="labelBkg" style="display: table-cell; white-space: nowrap; line-height: 1.5; max-width: 200px; text-align: center;"><span class="edgeLabel"></span></div></foreignObject></g></g></g><g class="nodes"><g class="node default" id="my-svg-flowchart-A-0" data-look="classic" transform="translate(460.2265625, 176)"><rect class="basic label-container" style="" x="-110.9296875" y="-39" width="221.859375" height="78"/><g class="label" style="" transform="translate(-80.9296875, -24)"><rect/><foreignObject width="161.859375" height="48"><div xmlns="http://www.w3.org/1999/xhtml" style="display: table-cell; white-space: nowrap; line-height: 1.5; max-width: 200px; text-align: center;"><span class="nodeLabel"><p>1.1 Requisiti e Scoping<br />(1 settimana)</p></span></div></foreignObject></g></g><g class="node default" id="my-svg-flowchart-B-1" data-look="classic" transform="translate(764.4140625, 223)"><rect class="basic label-container" style="" x="-93.2578125" y="-39" width="186.515625" height="78"/><g class="label" style="" transform="translate(-63.2578125, -24)"><rect/><foreignObject width="126.515625" height="48"><div xmlns="http://www.w3.org/1999/xhtml" style="display: table-cell; white-space: nowrap; line-height: 1.5; max-width: 200px; text-align: center;"><span class="nodeLabel"><p>1.2 Progettazione<br />(2 settimane)</p></span></div></foreignObject></g></g><g class="node default" id="my-svg-flowchart-C-2" data-look="classic" transform="translate(1046.1640625, 82)"><rect class="basic label-container" style="" x="-87.4375" y="-39" width="174.875" height="78"/><g class="label" style="" transform="translate(-57.4375, -24)"><rect/><foreignObject width="114.875" height="48"><div xmlns="http://www.w3.org/1999/xhtml" style="display: table-cell; white-space: nowrap; line-height: 1.5; max-width: 200px; text-align: center;"><span class="nodeLabel"><p>1.3 Runtime BDI<br />(4 settimane)</p></span></div></foreignObject></g></g><g class="node default" id="my-svg-flowchart-D-3" data-look="classic" transform="translate(1046.1640625, 213)"><rect class="basic label-container" style="" x="-88.4921875" y="-39" width="176.984375" height="78"/><g class="label" style="" transform="translate(-58.4921875, -24)"><rect/><foreignObject width="116.984375" height="48"><div xmlns="http://www.w3.org/1999/xhtml" style="display: table-cell; white-space: nowrap; line-height: 1.5; max-width: 200px; text-align: center;"><span class="nodeLabel"><p>1.4 LLM Pipeline<br />(3 settimane)</p></span></div></foreignObject></g></g><g class="node default" id="my-svg-flowchart-E-4" data-look="classic" transform="translate(1046.1640625, 361)"><rect class="basic label-container" style="" x="-78.2890625" y="-39" width="156.578125" height="78"/><g class="label" style="" transform="translate(-48.2890625, -24)"><rect/><foreignObject width="96.578125" height="48"><div xmlns="http://www.w3.org/1999/xhtml" style="display: table-cell; white-space: nowrap; line-height: 1.5; max-width: 200px; text-align: center;"><span class="nodeLabel"><p>1.5 Web App<br />(3 settimane)</p></span></div></foreignObject></g></g><g class="node default" id="my-svg-flowchart-F-5" data-look="classic" transform="translate(1346.421875, 344)"><rect class="basic label-container" style="" x="-111.765625" y="-39" width="223.53125" height="78"/><g class="label" style="" transform="translate(-81.765625, -24)"><rect/><foreignObject width="163.53125" height="48"><div xmlns="http://www.w3.org/1999/xhtml" style="display: table-cell; white-space: nowrap; line-height: 1.5; max-width: 200px; text-align: center;"><span class="nodeLabel"><p>1.6 Integrazione e Test<br />(2 settimane)</p></span></div></foreignObject></g></g><g class="node default" id="my-svg-flowchart-G-6" data-look="classic" transform="translate(1661.3125, 411)"><rect class="basic label-container" style="" x="-103.125" y="-39" width="206.25" height="78"/><g class="label" style="" transform="translate(-73.125, -24)"><rect/><foreignObject width="146.25" height="48"><div xmlns="http://www.w3.org/1999/xhtml" style="display: table-cell; white-space: nowrap; line-height: 1.5; max-width: 200px; text-align: center;"><span class="nodeLabel"><p>1.7 Documentazione<br />(1 settimana)</p></span></div></foreignObject></g></g><g class="node default" id="my-svg-flowchart-M-7" data-look="classic" transform="translate(141.1484375, 290)"><rect class="basic label-container" style="" x="-108.1484375" y="-39" width="216.296875" height="78"/><g class="label" style="" transform="translate(-78.1484375, -24)"><rect/><foreignObject width="156.296875" height="48"><div xmlns="http://www.w3.org/1999/xhtml" style="display: table-cell; white-space: nowrap; line-height: 1.5; max-width: 200px; text-align: center;"><span class="nodeLabel"><p>1.8 Gestione Progetto<br />(continuativo)</p></span></div></foreignObject></g></g></g></g></g><defs><filter id="my-svg-drop-shadow" height="130%" width="130%"><feDropShadow dx="4" dy="4" stdDeviation="0" flood-opacity="0.06" flood-color="#000000"/></filter></defs><defs><filter id="my-svg-drop-shadow-small" height="150%" width="150%"><feDropShadow dx="2" dy="2" stdDeviation="0" flood-opacity="0.06" flood-color="#000000"/></filter></defs></svg>